<svg width="12" height="12" viewBox="0 0 12 12" fill="none" xmlns="http://www.w3.org/2000/svg">
<path d="M0.906555 6.75003H9.28406L5.62405 10.41C5.33156 10.7025 5.33156 11.1825 5.62405 11.475C5.91655 11.7675 6.38906 11.7675 6.68155 11.475L11.6241 6.53253C11.9166 6.24003 11.9166 5.76753 11.6241 5.47503L6.68906 0.525028C6.54893 0.384589 6.35869 0.305664 6.16031 0.305664C5.96192 0.305664 5.77168 0.384589 5.63156 0.525028C5.33906 0.817528 5.33906 1.29003 5.63156 1.58253L9.28406 5.25003H0.906555C0.494055 5.25003 0.156555 5.58753 0.156555 6.00003C0.156555 6.41253 0.494055 6.75003 0.906555 6.75003Z" fill="black"/>
</svg>
